HIERARCHY
ROOT Hips
{
	OFFSET 0.000000 0.000000 0.000000
	CHANNELS 6 Xposition Yposition Zposition Xrotation Yrotation Zrotation
	JOINT LeftUpLeg_virtual
	{
		OFFSET 0.000000 0.000000 0.000000
		CHANNELS 3 Xrotation Yrotation Zrotation
		JOINT LeftUpLeg
		{
			OFFSET 15.427100 -6.655098 0.678600
			CHANNELS 3 Xrotation Yrotation Zrotation
			JOINT LeftLeg
			{
				OFFSET 4.081073 -39.591068 13.024000
				CHANNELS 3 Xrotation Yrotation Zrotation
				JOINT LeftFoot
				{
					OFFSET -4.081074 -37.707932 -15.979700
					CHANNELS 3 Xrotation Yrotation Zrotation
					JOINT LeftToeBase
					{
						OFFSET 5.346399 -15.068900 20.645000
						CHANNELS 3 Xrotation Yrotation Zrotation
						JOINT LeftToe_End
						{
							OFFSET 2.754700 0.931300 11.300900
							CHANNELS 3 Xrotation Yrotation Zrotation
							End Site
							{
								OFFSET 0 0 0
							}
						}
					}
				}
			}
		}
	}
	JOINT RightUpLeg_virtual
	{
		OFFSET 0.000000 0.000000 0.000000
		CHANNELS 3 Xrotation Yrotation Zrotation
		JOINT RightUpLeg
		{
			OFFSET -15.569500 -6.655098 0.678600
			CHANNELS 3 Xrotation Yrotation Zrotation
			JOINT RightLeg
			{
				OFFSET -4.081825 -39.591045 13.023800
				CHANNELS 3 Xrotation Yrotation Zrotation
				JOINT RightFoot
				{
					OFFSET 4.081824 -37.707954 -15.979600
					CHANNELS 3 Xrotation Yrotation Zrotation
					JOINT RightToeBase
					{
						OFFSET -5.346400 -15.068900 20.645000
						CHANNELS 3 Xrotation Yrotation Zrotation
						JOINT RightToe_End
						{
							OFFSET -2.754700 0.931300 11.300900
							CHANNELS 3 Xrotation Yrotation Zrotation
							End Site
							{
								OFFSET 0 0 0
							}
						}
					}
				}
			}
		}
	}
	JOINT Spine_virtual
	{
		OFFSET 0.000000 0.000000 0.000000
		CHANNELS 3 Xrotation Yrotation Zrotation
		JOINT Spine
		{
			OFFSET -0.279200 12.230698 -2.892100
			CHANNELS 3 Xrotation Yrotation Zrotation
			JOINT Spine1
			{
				OFFSET -0.232667 10.192268 -1.242267
				CHANNELS 3 Xrotation Yrotation Zrotation
				JOINT Spine1_split
				{
					OFFSET -0.232667 10.192268 -1.242267
					CHANNELS 3 Xrotation Yrotation Zrotation
					JOINT Spine2
					{
						OFFSET -0.232667 10.192268 -1.242267
						CHANNELS 3 Xrotation Yrotation Zrotation
						JOINT Neck_virtual
						{
							OFFSET 0.000000 0.000000 0.000000
							CHANNELS 3 Xrotation Yrotation Zrotation
							JOINT Neck
							{
								OFFSET -0.418800 17.814194 8.416900
								CHANNELS 3 Xrotation Yrotation Zrotation
								JOINT Head
								{
									OFFSET 0.000000 7.031097 3.806800
									CHANNELS 3 Xrotation Yrotation Zrotation
									JOINT HeadTop_End
									{
										OFFSET 0.000000 24.646606 12.978600
										CHANNELS 3 Xrotation Yrotation Zrotation
										End Site
										{
											OFFSET 0 0 0
										}
									}
								}
							}
						}
						JOINT LeftShoulder_virtual
						{
							OFFSET 0.000000 0.000000 0.000000
							CHANNELS 3 Xrotation Yrotation Zrotation
							JOINT LeftShoulder
							{
								OFFSET 8.476499 7.247704 -3.868750
								CHANNELS 3 Xrotation Yrotation Zrotation
								JOINT LeftShoulder_split
								{
									OFFSET 8.476499 7.247704 -3.868750
									CHANNELS 3 Xrotation Yrotation Zrotation
									JOINT LeftArm
									{
										OFFSET 9.308998 -2.777710 0.208600
										CHANNELS 3 Xrotation Yrotation Zrotation
										JOINT LeftForeArm
										{
											OFFSET 29.972298 0.000000 0.000000
											CHANNELS 3 Xrotation Yrotation Zrotation
											JOINT LeftHand
											{
												OFFSET 26.026505 0.000000 0.000000
												CHANNELS 3 Xrotation Yrotation Zrotation
												End Site
												{
													OFFSET 0 0 0
												}
											}
										}
									}
								}
							}
						}
						JOINT RightShoulder_virtual
						{
							OFFSET 0.000000 0.000000 0.000000
							CHANNELS 3 Xrotation Yrotation Zrotation
							JOINT RightShoulder
							{
								OFFSET -7.570500 7.247704 -3.868750
								CHANNELS 3 Xrotation Yrotation Zrotation
								JOINT RightShoulder_split
								{
									OFFSET -7.570500 7.247704 -3.868750
									CHANNELS 3 Xrotation Yrotation Zrotation
									JOINT RightArm
									{
										OFFSET -9.308998 -2.777710 0.208500
										CHANNELS 3 Xrotation Yrotation Zrotation
										JOINT RightForeArm
										{
											OFFSET -29.972300 0.000000 0.000000
											CHANNELS 3 Xrotation Yrotation Zrotation
											JOINT RightHand
											{
												OFFSET -26.026505 0.000000 0.000000
												CHANNELS 3 Xrotation Yrotation Zrotation
												End Site
												{
													OFFSET 0 0 0
												}
											}
										}
									}
								}
							}
						}
					}
				}
			}
		}
	}
}
MOTION
Frames: 6
Frame Time: 0.03333333
6.179023 64.764969 139.327789 0.000000 0.000000 0.000000 4.164047 -3.592893 -0.415961 35.400003 43.749916 6.394290 22.275888 10.159782 -3.103290 -36.369176 28.060996 -19.506737 -13.580677 -5.620049 -8.091015 0.000000 0.000000 0.000000 4.712009 -3.569937 -1.274845 -73.728641 8.347513 -8.655010 46.056539 -5.039204 7.666878 11.486380 1.250880 21.765668 13.643758 -3.822322 -33.398262 0.000000 0.000000 0.000000 2.575660 -1.412112 -0.156009 2.241929 -12.280415 3.839380 2.642727 -6.164811 -0.921415 0.204743 -1.054513 0.119010 0.000000 0.000000 0.000000 5.864609 -5.121686 1.344823 12.220261 19.331848 6.728525 3.248925 12.783772 -1.307145 0.000000 0.000000 0.000000 4.576245 -5.926341 0.279891 1.939502 -13.184792 -10.633867 -4.372653 0.084019 -7.635732 -60.875755 -19.256465 -25.718884 -22.961911 -54.746907 -4.553057 0.000000 0.000000 0.000000 3.996903 -6.549182 0.829157 -0.631449 0.527195 -14.038067 -10.733795 -8.105140 -4.744445 -44.852865 39.562040 48.081308 5.089590 3.565112 -0.509965 0.000000 0.000000 0.000000 
5.466514 64.682716 142.468536 0.000000 0.000000 0.000000 5.143002 -8.867073 -1.648204 38.943017 46.546192 3.870754 16.486391 10.984905 -4.070268 -30.760071 24.804252 -17.570423 -23.310047 -5.917693 -8.501145 0.000000 0.000000 0.000000 5.789714 -9.640191 -2.207939 -72.376366 8.230799 -2.352079 49.496499 -8.952870 8.596605 7.111125 -3.148285 18.002736 15.981079 -5.201253 -33.479921 0.000000 0.000000 0.000000 3.589357 -6.965474 -1.553651 2.318622 -13.766245 5.258941 3.420168 -8.901194 -0.479390 0.042855 -1.049772 0.075187 0.000000 0.000000 0.000000 6.458051 -7.863081 2.104799 8.524091 21.588737 6.435528 8.789315 20.529498 -1.425299 0.000000 0.000000 0.000000 4.827186 -8.760102 0.501584 0.413232 -21.487630 -13.745723 -3.675202 -1.046810 -6.065380 -52.230894 -28.859168 -24.250638 -13.564599 -40.871306 -2.185528 0.000000 0.000000 0.000000 4.591180 -9.190037 1.784669 -0.640950 -3.914171 -6.508845 -8.438821 -7.079352 -4.534027 -29.452387 34.269299 35.229098 3.138926 -3.860439 1.665144 0.000000 0.000000 0.000000 
4.962996 64.700485 145.662003 0.000000 0.000000 0.000000 6.427858 -14.529998 -2.835102 37.859653 48.533176 5.195269 14.930435 10.788749 -5.933890 -21.113981 22.285635 -16.227295 -30.627050 -5.543174 -9.852505 0.000000 0.000000 0.000000 6.926057 -15.063528 -2.998372 -71.530782 8.634790 2.811774 53.727241 -10.680245 9.433718 4.095107 -5.756162 15.487495 16.957673 -5.926544 -32.772545 0.000000 0.000000 0.000000 5.226742 -11.952992 -2.641917 2.295443 -14.492429 6.627655 4.046698 -11.023950 -0.181324 -0.059382 -0.903621 0.032271 0.000000 0.000000 0.000000 7.057935 -9.974568 2.652371 4.059344 23.252308 6.686356 12.727904 26.344330 -2.433222 0.000000 0.000000 0.000000 4.888708 -10.911729 0.587265 -1.040372 -28.365497 -15.682915 -2.570898 -2.271878 -4.226219 -43.737260 -35.220905 -22.304278 -5.183666 -29.810576 -1.509556 0.000000 0.000000 0.000000 4.842437 -11.204871 2.460503 -0.479356 -7.338046 -0.172740 -6.400155 -5.956637 -4.287709 -19.525936 27.618765 26.102637 0.670454 -3.721839 2.885688 0.000000 0.000000 0.000000 
4.656215 64.721245 149.116699 0.000000 0.000000 0.000000 7.589855 -20.464420 -3.984747 31.938238 49.312876 10.953496 18.584738 9.621063 -8.795841 -10.361924 21.301311 -14.680510 -31.852317 -4.597239 -12.338562 0.000000 0.000000 0.000000 7.821533 -19.939527 -3.966833 -70.711617 9.229930 6.648769 56.988117 -10.309593 9.798030 2.952543 -6.146986 15.354117 15.595000 -5.799923 -31.555597 0.000000 0.000000 0.000000 7.263414 -16.893332 -3.485533 2.357922 -14.422493 7.749703 4.412886 -12.419894 -0.059255 -0.096077 -0.606866 0.063750 0.000000 0.000000 0.000000 7.450755 -11.369690 2.875639 -0.707184 24.204485 7.376381 14.529250 30.292285 -3.658775 0.000000 0.000000 0.000000 4.600943 -12.305398 0.498973 -1.836546 -33.377041 -16.090724 -1.000960 -2.988050 -2.588063 -39.253603 -38.234200 -22.774050 2.866563 -23.055585 -1.198278 0.000000 0.000000 0.000000 4.650491 -12.460989 2.800736 -0.379938 -9.319263 4.672705 -4.133344 -5.030088 -3.961544 -14.250426 21.482898 19.246350 -2.469258 1.306170 3.757608 0.000000 0.000000 0.000000 
4.533661 64.814621 152.767548 0.000000 0.000000 0.000000 8.422111 -26.283285 -5.213775 21.886650 48.270747 20.135579 26.689690 7.927519 -12.127061 -2.614696 21.759671 -12.072079 -28.415204 -3.575171 -15.633700 0.000000 0.000000 0.000000 8.309228 -24.609107 -5.139716 -68.766208 9.845275 9.118193 57.826922 -8.855556 9.676250 2.265980 -5.138646 16.372221 13.570827 -5.279950 -29.096732 0.000000 0.000000 0.000000 9.157476 -22.078387 -4.219873 2.580742 -13.599278 8.522947 4.463140 -13.107697 -0.014820 -0.014548 -0.245574 0.170340 0.000000 0.000000 0.000000 7.417496 -12.083007 2.794018 -5.132160 24.571197 8.253016 14.210802 32.619218 -4.666213 0.000000 0.000000 0.000000 3.916742 -12.995081 0.214801 -1.741929 -36.526008 -15.164512 0.368267 -2.713644 -1.341632 -40.632136 -38.535319 -26.963960 10.752808 -19.584499 -0.430012 0.000000 0.000000 0.000000 4.113932 -12.987771 2.908031 -0.499568 -9.761555 7.961404 -1.950514 -4.725898 -3.318775 -12.206923 16.821460 13.336530 -5.945782 8.372540 4.661681 0.000000 0.000000 0.000000 
4.545052 65.299072 156.718521 0.000000 0.000000 0.000000 8.878048 -31.119790 -6.578718 9.584115 44.097631 31.028190 37.918526 4.625505 -14.736324 1.801789 22.463731 -10.431728 -25.667057 -2.624267 -18.575360 0.000000 0.000000 0.000000 8.568284 -29.100485 -6.347448 -65.091867 10.519452 10.471022 55.823467 -7.349879 9.005123 0.002327 -3.707002 17.017247 13.661419 -4.927691 -24.701003 0.000000 0.000000 0.000000 10.445510 -27.396789 -4.940841 2.930931 -12.231673 8.901739 4.162917 -13.187739 0.034376 0.139734 0.130164 0.192113 0.000000 0.000000 0.000000 6.863483 -12.210409 2.489915 -8.613027 24.461235 9.002251 12.140545 33.586492 -5.285245 0.000000 0.000000 0.000000 3.028831 -13.098647 -0.190957 -0.757186 -38.007619 -13.240930 1.741098 -1.894613 -0.048170 -46.766145 -37.113995 -33.688228 17.792807 -17.610987 0.792085 0.000000 0.000000 0.000000 3.360319 -12.887655 2.933483 -0.755126 -9.123674 9.797253 0.194590 -5.201625 -2.452223 -12.585461 13.755172 8.146427 -9.276502 14.432833 5.533547 0.000000 0.000000 0.000000 
